PathFileType	4	(X/Y/Z)	/home/abdul/Desktop/myosuite/custom_workspace/IK/output/S3_12_2.trc
DataRate	CameraRate	NumFrames	NumMarkers	Units	OrigDataRate	OrigDataStartFrame	OrigNumFrames
200.0	200.0	56	3	mm	200.0	836	955
Frame#	Time	V_Shoulder			V_Elbow			V_Wrist		
		X1	Y1	Z1	X2	Y2	Z2	X3	Y3	Z3

836	4.175	-126.94490630522724	658.198478232602	309.4292918196007	-330.159524674339	478.3551803547605	65.81156462619927	-186.85484653569227	246.55522358186886	76.7894463727971
837	4.18	-126.93006444192311	658.2893702812424	309.45837751569945	-330.41484806181313	478.5503852814543	65.98751727770693	-188.46255647347527	246.19161874299002	77.17779380239685
838	4.185	-126.91600387921756	658.379922576392	309.48755792519694	-330.6698450788721	478.74480316560135	66.16421311747968	-190.0811018637956	245.82440579077738	77.54419101519275
839	4.19	-126.90277215438557	658.4700633517515	309.51676628384	-330.92436480529136	478.93843844347225	66.3413921424453	-191.70959095861082	245.45420403328396	77.88782010054803
840	4.195	-126.89041645884079	658.5597215804302	309.54593395698885	-331.1782562136438	479.13130084752754	66.51878810039362	-193.34711896634204	245.08164269269153	78.20789294649157
841	4.2	-126.8789835603679	658.6488270762521	309.5749905789676	-331.43136834293495	479.32340507217714	66.69612910649028	-194.9927693330489	244.70735895335807	78.5036534994812
842	4.205	-126.86851972381676	658.7373105915681	309.6038642018074	-331.6835504752472	479.51477041652527	66.87313828662614	-196.6456150403041	244.33199598280754	78.77437996849444
843	4.21	-126.85907063025213	658.8251039115025	309.63248145310257	-331.934652315166	479.7054204061907	67.04953444571234	-198.30471991706648	243.956200933363	79.01938696629776
844	4.215	-126.85068129456322	658.9121399445968	309.6607677026561	-332.18452417175	479.895382396374	67.22503275894937	-199.96913996285465	243.58062293215363	79.23802758091048
845	4.22	-126.84339598154641	658.9983528098246	309.6886472375547	-332.4330171427981	480.08468715841616	67.39934548402583	-201.63792467953692	243.20591106722367	79.42969537046294
846	4.225	-126.83725812048647	659.0836779199889	309.7160434452724	-332.67998330115535	480.273368452147	67.57218269213382	-203.31011840907084	242.83271237743642	79.59382627485014
847	4.23	-126.83231021827213	659.1680520615205	309.7428790043634	-332.92527588279404	480.46146258637157	67.74325301562715	-204.98476167455277	242.46166985380142	79.72990043780081
848	4.235	-126.82859377109696	659.2514134707267	309.76907608226566	-333.1687494763971	480.64900796987206	67.91226441009296	-206.6608925219698	242.0934204597558	79.83744393321642
849	4.24	-126.82614917480969	659.333701906553	309.7945565397043	-333.4102602141655	480.836044655326	68.07892492855835	-208.33754786008507	241.72859317780637	79.9160303898852
850	4.245	-126.82501563399371	659.4148587199338	309.8192421411411	-333.6496659635645	481.0226138785496	68.24294350551047	-210.01376479593247	241.36780708978426	79.96528250894028
851	4.25	-126.82523106987189	659.4948269198318	309.84305477068773	-333.8868265197186	481.20875759546925	68.40403074837076	-211.68858196344448	241.01166949778343	79.98487346870904
852	4.255	-126.8268320271497	659.5735512360684	309.86591665286466	-334.12160379815884	481.39451801921564	68.56189973403255	-213.36104084279395	240.660774092646	79.97452821189091
853	4.26	-126.82985357992833	659.650978179064	309.8877505775549	-334.35386202761924	481.57993715970156	68.71626680804496	-215.0301870680876	240.31569917662512	79.93402461030402
854	4.265	-126.83432923683665	659.7270560966128	309.9084801284744	-334.5834679425774	481.76505636801505	68.86685238400571	-216.6950717211136	239.97700594659938	79.86319450275371
855	4.27	-126.8402908455517	659.8017352278222	309.9280299144498	-334.81029097522094	481.9499158879062	69.01338174070963	-218.35475260891246	239.6452368439349	79.76192460190056
856	4.275	-126.84776849689563	659.8749677543527	309.9463258027693	-335.03420344652307	482.13455441659426	69.15558581459054	-220.00829552301042	239.32091397678994	79.63015726633958
857	4.28	-126.85679042871806	659.9467078490935	309.9632951538487	-335.2550807560954	482.31900867705235	69.2932019849892	-221.65477547823036	239.00453762033777	79.46789113444522
858	4.285	-126.86738292979294	660.016911722408	309.9788670564297	-335.47280157048425	482.5033130038531	69.42597484978128	-223.2932779290703	238.69658480004603	79.27518161688978
859	4.29	-126.87957024397902	660.0855376660837	309.9929725625123	-335.6872480095642	482.68749894457517	69.55365698890523	-224.92289996172065	238.39750796279532	79.05214124510299
860	4.295	-126.89337447491437	660.1525460951101	310.0055449212009	-335.898305830676	482.87159487867825	69.67600971334153	-226.54275145987305	238.10773374025078	78.79893987331027
861	4.3	-126.90881549153464	660.2178995874084	310.01651981063264	-336.10586461014327	483.0556256556571	69.79280379711189	-228.15195624255887	237.8276618085167	78.51580473216362
862	4.305	-126.92591083472621	660.2815629216188	310.0258355671428	-336.309817921796	483.23961225417906	69.90382018988895	-229.74965317234245	237.55766384770862	78.20302033236335
863	4.31	-126.9446756254434	660.3435031130492	310.0334334108115	-336.5100635121138	483.423571463799	70.00885070783555	-231.33499723228147	237.29808260467206	77.86092821706104
864	4.315	-126.9651224746396	660.4036894478689	310.03925766653197	-336.7065034715921	483.60751559072696	70.1076987003257	-232.90716057016067	237.04923106166265	77.48992656223217
865	4.32	-126.98726139537943	660.4620935156214	310.0432559797351	-336.8990444019256	483.7914521890045	70.20017969023883	-234.46533350859377	236.81139171338037	77.09046962461198
866	4.325	-127.01109971751686	660.5186892401098	310.0453795259048	-337.08759757858655	483.9753838183169	70.28612198556417	-236.00872551968533	236.58481595432397	76.66306703719954
867	4.33	-127.03664200534054	660.573452908697	310.04558321302096	-337.2720791083684	484.15930782954104	70.36536726010293	-237.5365661630363	236.3697235780009	76.20828295275217
868	4.335	-127.06388997860233	660.6263632000399	310.0438258760737	-337.4524100814529	484.3432161789924	70.4377711011139	-239.04810598597504	236.1663023890936	75.72673503611468
869	4.34	-127.0928424373595	660.6774012102577	310.0400704627996	-337.62851671754606	484.527095272202	70.50320352181114	-240.54261738498985	235.97470792925105	75.21909330665471
870	4.345	-127.12349519107222	660.7265504775187	310.03428420980305	-337.800330505622	484.7109258379139	70.56154943669262	-242.0193954274366	235.795063316739	74.68607883250687
871	4.35	-127.15584099240921	660.7737970050019	310.0264388082425	-337.96778833680236	484.89468283285396	70.61270909775551	-243.4777586326905	235.6274591997533	74.12846227876277
872	4.355	-127.18986947622223	660.8191292821779	310.01651055827745	-338.1308326298912	485.0783353776811	70.65659848973725	-244.91704971200818	235.47195382277204	73.54706231218124
873	4.36	-127.22556710415688	660.8625383043224	310.0044805114967	-338.28941144908083	485.2618467243905	70.69314968261126	-246.33663626646	235.32857320490112	72.94274386543131
874	4.365	-127.26291711537165	660.9040175901642	309.99033460057103	-338.44347861333705	485.445174255295	70.72231113966382	-247.73591144238722	235.19731142875202	72.31641626432004
875	4.37	-127.30189948383868	660.9435631975399	309.9740637554051	-338.5929937969699	485.6282695135731	70.74404797958256	-249.1142945439293	235.07813103798247	71.66903122189582
876	4.375	-127.34249088269878	660.9811737369129	309.95566400509114	-338.73792262089694	485.81107826522884	70.75834219109859	-250.4712316022574	234.9709635412339	71.00158070375497
877	4.38	-127.38466465614165	661.0168503825945	309.93513656500636	-338.878236734105	485.99354059217114	70.76519279884221	-251.8061959012365	234.87571001980953	70.31509466931392
878	4.385	-127.42839079927417	661.0505968814836	309.91248790843156	-339.0139138848212	486.17559101598385	70.76461597919814	-253.1186884593215	234.79224183606294	69.61063869423953
879	4.39	-127.47363594643252	661.0824195591218	309.8877298221109	-339.1449379809104	486.35715865182146	70.75664512507814	-254.40823846757414	234.72040143910164	68.88931147965485
880	4.395	-127.52036336838178	661.1123273228551	309.8608794452188	-339.2712991390242	486.5381673917342	70.74133085866903	-255.67440368376043	234.6600032640625	68.15224225415653
881	4.4	-127.56853297883134	661.1403316618618	309.8319592912457	-339.39299372203914	486.7185361165972	70.71874099135984	-256.91677078256254	234.61083472088112	67.40058807508979
882	4.405	-127.61810135067776	661.1664466438106	309.80099725236704	-339.51002436433555	486.89817893569307	70.68896043020517	-258.1349556620015	234.57265726815905	66.635531035929
883	4.41	-127.6690217423644	661.1906889078874	309.76802658591333	-339.62239998448774	487.0770054528746	70.65209103044087	-259.3286037062308	234.54520756743312	65.85827538700177
884	4.415	-127.7212441347239	661.2130776539317	309.73308588261517	-339.7301357849524	487.2549210581192	70.60825139373398	-260.4973900049122	234.52819871286718	65.0700445771734
885	4.42	-127.77471527864202	661.2336346274068	309.6962190163576	-339.8332532383709	487.43182724317273	70.55757661201969	-261.64101952943525	234.52132153112456	64.27207822447424
886	4.425	-127.82937875385001	661.2523840999315	309.65747507524065	-339.93178006012306	487.60762193987273	70.5002179569552	-262.7592272662846	234.52424594593634	63.46562902400292
887	4.43	-127.88517503912	661.2693528450941	309.61690827380545	-340.02575016680225	487.7821998796418	70.43634251520199	-263.8517783078909	234.5366224016577	62.65195960177372
888	4.435	-127.94204159409924	661.2845701092716	309.574577846355	-340.1152036203125	487.9554529725426	70.36613276993413	-264.918467901335	234.55808333990478	61.83233932349366
889	4.44	-127.99991295297961	661.2980675771818	309.5305479213659	-340.200186557326	488.1272707041985	70.28978612916083	-265.95912145529155	234.5882447231861	61.00804106755416
890	4.445	-128.05872083015507	661.3098793319003	309.4848873770597	-340.28075110387397	488.29754054880084	70.20751440164523	-266.97359450561726	234.626707599288	60.180337971800526
891	4.45	-128.1183942379727	661.3200418090856	309.437669678276	-340.3569552748905	488.4661483963463	70.11954322139775	-267.9617726399963	234.6730597000419	59.35050016390042
